<?xml version="1.0" encoding="UTF-8"?><svg id="a" xmlns="http://www.w3.org/2000/svg" viewBox="6 0 500.14 98.43"><path class="b" d="M12.01,55.48V12.92h21.22v42.13c0,10.94,5.52,16.13,13.97,16.13s14.08-4.98,14.08-15.59V12.92h21.22v42.02c0,24.37-13.97,35.19-35.52,35.19S12.01,79.19,12.01,55.48"/><path class="b" d="M91.54,51.04v-.22c0-22.09,16.89-39.42,39.85-39.42,15.48,0,25.45,6.5,32.16,15.7l-15.81,12.24c-4.33-5.31-9.31-8.88-16.57-8.88-10.61,0-18.08,9.1-18.08,20.14v.22c0,11.37,7.47,20.25,18.08,20.25,7.91,0,12.56-3.68,17.11-9.2l15.81,11.26c-7.15,9.85-16.78,17.11-33.46,17.11-21.66,0-39.09-16.57-39.09-39.2"/><rect class="b" x="186.03" y="12.92" width="21.01" height="75.8"/><path class="b" d="M219.32,30.14h20.57v11.8c3.36-8.01,8.77-13.21,18.52-12.78v21.66h-1.73c-10.72,0-16.79,6.17-16.79,19.6v18.3h-20.57V30.14Z"/><polygon class="b" points="305.71 30.14 294.34 64.36 283.07 30.14 261.42 30.14 284.81 89.16 303.54 89.16 326.93 30.14 305.71 30.14"/><path class="b" d="M332,88.72h20.47V30.14h-20.47v58.59ZM331.57,24.83h21.33v-15.16h-21.33v15.16Z"/><path class="b" d="M363.41,30.14h20.57v8.23c3.79-4.87,9.21-9.53,17.54-9.53,12.45,0,19.93,8.23,19.93,21.55v38.33h-20.47v-31.73c0-6.5-3.36-9.96-8.34-9.96s-8.66,3.47-8.66,9.96v31.73h-20.57V30.14Z"/><path class="b" d="M469,54.61c-.76-6.5-4.66-10.61-10.29-10.61s-9.1,4.12-10.18,10.61h20.47ZM429.15,59.7v-.22c0-17.11,12.24-30.65,29.56-30.65,20.14,0,29.46,14.84,29.46,32.05,0,1.3,0,2.82-.11,4.23h-39.2c1.62,6.39,6.28,9.64,12.67,9.64,4.98,0,8.77-1.84,13-5.95l11.37,9.42c-5.63,7.15-13.75,11.91-25.34,11.91-18.41,0-31.41-12.34-31.41-30.43"/></svg>